solid OpenSCAD_Model
  facet normal 1 -0 0
    outer loop
      vertex 6.3 -14 2.2
      vertex 6.3 14 0
      vertex 6.3 14 2.2
    endloop
  endfacet
  facet normal 1 0 0
    outer loop
      vertex 6.3 14 0
      vertex 6.3 -14 2.2
      vertex 6.3 -14 0
    endloop
  endfacet
  facet normal 0 0 1
    outer loop
      vertex -3.5 14 2.2
      vertex -6.3 14 2.2
      vertex -3.5 -5 2.2
    endloop
  endfacet
  facet normal 0 0 1
    outer loop
      vertex 3.5 -5 2.2
      vertex 6.3 14 2.2
      vertex 3.5 14 2.2
    endloop
  endfacet
  facet normal 0 0 1
    outer loop
      vertex 6.3 14 2.2
      vertex 3.5 -5 2.2
      vertex 6.3 -14 2.2
    endloop
  endfacet
  facet normal -0 0 1
    outer loop
      vertex -3.5 -5 2.2
      vertex 6.3 -14 2.2
      vertex 3.5 -5 2.2
    endloop
  endfacet
  facet normal 0 0 1
    outer loop
      vertex -3.5 -5 2.2
      vertex -6.3 -14 2.2
      vertex 6.3 -14 2.2
    endloop
  endfacet
  facet normal 0 0 1
    outer loop
      vertex -6.3 -14 2.2
      vertex -3.5 -5 2.2
      vertex -6.3 14 2.2
    endloop
  endfacet
  facet normal 0 0 -1
    outer loop
      vertex 6.3 -14 0
      vertex 3.5 -5 0
      vertex 6.3 14 0
    endloop
  endfacet
  facet normal 0 0 -1
    outer loop
      vertex 6.3 -14 0
      vertex -3.5 -5 0
      vertex 3.5 -5 0
    endloop
  endfacet
  facet normal 0 0 -1
    outer loop
      vertex -6.3 -14 0
      vertex -3.5 -5 0
      vertex 6.3 -14 0
    endloop
  endfacet
  facet normal 0 0 -1
    outer loop
      vertex -6.3 14 0
      vertex -3.5 -5 0
      vertex -6.3 -14 0
    endloop
  endfacet
  facet normal 0 0 -1
    outer loop
      vertex -3.5 -5 0
      vertex -6.3 14 0
      vertex -3.5 14 0
    endloop
  endfacet
  facet normal -0 0 -1
    outer loop
      vertex 6.3 14 0
      vertex 3.5 -5 0
      vertex 3.5 14 0
    endloop
  endfacet
  facet normal -1 0 0
    outer loop
      vertex -6.3 -14 0
      vertex -6.3 14 2.2
      vertex -6.3 14 0
    endloop
  endfacet
  facet normal -1 -0 0
    outer loop
      vertex -6.3 14 2.2
      vertex -6.3 -14 0
      vertex -6.3 -14 2.2
    endloop
  endfacet
  facet normal 0 1 -0
    outer loop
      vertex -3.5 14 0
      vertex -6.3 14 2.2
      vertex -3.5 14 2.2
    endloop
  endfacet
  facet normal 0 1 0
    outer loop
      vertex -6.3 14 2.2
      vertex -3.5 14 0
      vertex -6.3 14 0
    endloop
  endfacet
  facet normal 0 1 -0
    outer loop
      vertex 6.3 14 0
      vertex 3.5 14 2.2
      vertex 6.3 14 2.2
    endloop
  endfacet
  facet normal 0 1 0
    outer loop
      vertex 3.5 14 2.2
      vertex 6.3 14 0
      vertex 3.5 14 0
    endloop
  endfacet
  facet normal 0 -1 0
    outer loop
      vertex -6.3 -14 0
      vertex 6.3 -14 2.2
      vertex -6.3 -14 2.2
    endloop
  endfacet
  facet normal 0 -1 -0
    outer loop
      vertex 6.3 -14 2.2
      vertex -6.3 -14 0
      vertex 6.3 -14 0
    endloop
  endfacet
  facet normal -1 0 0
    outer loop
      vertex 3.5 -5 0
      vertex 3.5 14 2.2
      vertex 3.5 14 0
    endloop
  endfacet
  facet normal -1 -0 0
    outer loop
      vertex 3.5 14 2.2
      vertex 3.5 -5 0
      vertex 3.5 -5 2.2
    endloop
  endfacet
  facet normal 1 -0 0
    outer loop
      vertex -3.5 -5 2.2
      vertex -3.5 14 0
      vertex -3.5 14 2.2
    endloop
  endfacet
  facet normal 1 0 0
    outer loop
      vertex -3.5 14 0
      vertex -3.5 -5 2.2
      vertex -3.5 -5 0
    endloop
  endfacet
  facet normal 0 1 -0
    outer loop
      vertex 3.5 -5 0
      vertex -3.5 -5 2.2
      vertex 3.5 -5 2.2
    endloop
  endfacet
  facet normal 0 1 0
    outer loop
      vertex -3.5 -5 2.2
      vertex 3.5 -5 0
      vertex -3.5 -5 0
    endloop
  endfacet
endsolid OpenSCAD_Model
