solid OpenSCAD_Model
  facet normal -1 0 0
    outer loop
      vertex -5.4 -13.1 2
      vertex -5.4 -11.9 2.8
      vertex -5.4 -11.9 2
    endloop
  endfacet
  facet normal -1 -0 0
    outer loop
      vertex -5.4 -11.9 2.8
      vertex -5.4 -13.1 2
      vertex -5.4 -13.1 2.8
    endloop
  endfacet
  facet normal 1 -0 0
    outer loop
      vertex -5.4 -13 5.4
      vertex -5.4 13 4.3
      vertex -5.4 13 5.4
    endloop
  endfacet
  facet normal 1 0 0
    outer loop
      vertex -5.4 13 4.3
      vertex -5.4 -13 5.4
      vertex -5.4 -13 4.3
    endloop
  endfacet
  facet normal -0 0 1
    outer loop
      vertex -7.4 13 5.4
      vertex -5.4 -13 5.4
      vertex -5.4 13 5.4
    endloop
  endfacet
  facet normal 0 0 1
    outer loop
      vertex -5.4 -13 5.4
      vertex -7.4 13 5.4
      vertex -7.4 -13 5.4
    endloop
  endfacet
  facet normal 0 0 1
    outer loop
      vertex -6.4 -13 2
      vertex -7.4 -13 2
      vertex -6.4 -14 2
    endloop
  endfacet
  facet normal 0 0 1
    outer loop
      vertex 5.4 -13.1 2
      vertex -5.4 -13.1 2
      vertex 5.4 -14 2
    endloop
  endfacet
  facet normal 0 0 1
    outer loop
      vertex 7.5 21.2 2
      vertex 7.4 13 2
      vertex 7.5 -21.2 2
    endloop
  endfacet
  facet normal 0 0 1
    outer loop
      vertex 7.5 21.2 2
      vertex 6.4 14 2
      vertex 7.4 13 2
    endloop
  endfacet
  facet normal 0 0 1
    outer loop
      vertex 7.5 21.2 2
      vertex 5.4 14 2
      vertex 6.4 14 2
    endloop
  endfacet
  facet normal 0 0 1
    outer loop
      vertex 5.4 14 2
      vertex 5.2 8.55 2
      vertex 5.4 -11.9 2
    endloop
  endfacet
  facet normal 0 0 1
    outer loop
      vertex 4 11.35 2
      vertex 5.4 14 2
      vertex 4 14.35 2
    endloop
  endfacet
  facet normal 0 0 1
    outer loop
      vertex 7.5 21.2 2
      vertex 4 14.35 2
      vertex 5.4 14 2
    endloop
  endfacet
  facet normal 0 0 1
    outer loop
      vertex 7.5 21.2 2
      vertex -4 14.35 2
      vertex 4 14.35 2
    endloop
  endfacet
  facet normal -0 0 1
    outer loop
      vertex -5.4 14 2
      vertex -4 11.35 2
      vertex -4 14.35 2
    endloop
  endfacet
  facet normal 0 0 1
    outer loop
      vertex -5.4 -11.9 2
      vertex -5.2 8.55 2
      vertex -5.4 14 2
    endloop
  endfacet
  facet normal 0 0 1
    outer loop
      vertex -4 11.35 2
      vertex -5.4 14 2
      vertex -5.2 8.55 2
    endloop
  endfacet
  facet normal -0 0 1
    outer loop
      vertex -7.5 21.2 2
      vertex -4 14.35 2
      vertex 7.5 21.2 2
    endloop
  endfacet
  facet normal 0 0 1
    outer loop
      vertex -4 14.35 2
      vertex -7.5 21.2 2
      vertex -5.4 14 2
    endloop
  endfacet
  facet normal 0 0 1
    outer loop
      vertex -6.4 14 2
      vertex -7.4 13 2
      vertex -6.4 13 2
    endloop
  endfacet
  facet normal 0 0 1
    outer loop
      vertex -7.4 13 2
      vertex -7.5 21.2 2
      vertex -7.4 -13 2
    endloop
  endfacet
  facet normal 0 0 1
    outer loop
      vertex -6.4 14 2
      vertex -7.5 21.2 2
      vertex -7.4 13 2
    endloop
  endfacet
  facet normal 0 0 1
    outer loop
      vertex -5.4 14 2
      vertex -7.5 21.2 2
      vertex -6.4 14 2
    endloop
  endfacet
  facet normal -0 0 1
    outer loop
      vertex 7.4 -13 2
      vertex 7.5 -21.2 2
      vertex 7.4 13 2
    endloop
  endfacet
  facet normal 0 0 1
    outer loop
      vertex 6.4 -14 2
      vertex 7.4 -13 2
      vertex 6.4 -13 2
    endloop
  endfacet
  facet normal 0 0 1
    outer loop
      vertex 7.4 -13 2
      vertex 6.4 -14 2
      vertex 7.5 -21.2 2
    endloop
  endfacet
  facet normal -0 0 1
    outer loop
      vertex 5.4 -14 2
      vertex 7.5 -21.2 2
      vertex 6.4 -14 2
    endloop
  endfacet
  facet normal 0 0 1
    outer loop
      vertex -5.4 -14 2
      vertex 5.4 -14 2
      vertex -5.4 -13.1 2
    endloop
  endfacet
  facet normal 0 0 1
    outer loop
      vertex 5.4 -14 2
      vertex -5.4 -14 2
      vertex 7.5 -21.2 2
    endloop
  endfacet
  facet normal 0 0 1
    outer loop
      vertex -7.5 -21.2 2
      vertex -5.4 -14 2
      vertex -6.4 -14 2
    endloop
  endfacet
  facet normal 0 0 1
    outer loop
      vertex -5.4 -14 2
      vertex -7.5 -21.2 2
      vertex 7.5 -21.2 2
    endloop
  endfacet
  facet normal 0 0 1
    outer loop
      vertex -7.4 -13 2
      vertex -7.5 -21.2 2
      vertex -6.4 -14 2
    endloop
  endfacet
  facet normal 0 0 1
    outer loop
      vertex -7.5 -21.2 2
      vertex -7.4 -13 2
      vertex -7.5 21.2 2
    endloop
  endfacet
  facet normal 0 0 1
    outer loop
      vertex 7.4 13 2
      vertex 6.4 14 2
      vertex 6.4 13 2
    endloop
  endfacet
  facet normal -0 0 1
    outer loop
      vertex 5.2 -8.55 2
      vertex 5.4 -11.9 2
      vertex 5.2 8.55 2
    endloop
  endfacet
  facet normal -0 0 1
    outer loop
      vertex -5.2 -8.55 2
      vertex 5.4 -11.9 2
      vertex 5.2 -8.55 2
    endloop
  endfacet
  facet normal 0 0 1
    outer loop
      vertex -5.2 -8.55 2
      vertex -5.4 -11.9 2
      vertex 5.4 -11.9 2
    endloop
  endfacet
  facet normal 0 0 1
    outer loop
      vertex -5.2 8.55 2
      vertex -5.4 -11.9 2
      vertex -5.2 -8.55 2
    endloop
  endfacet
  facet normal 0 0 1
    outer loop
      vertex 5.4 14 2
      vertex 4 11.35 2
      vertex 5.2 8.55 2
    endloop
  endfacet
  facet normal -0 0 1
    outer loop
      vertex -4 11.35 2
      vertex 5.2 8.55 2
      vertex 4 11.35 2
    endloop
  endfacet
  facet normal 0 0 1
    outer loop
      vertex 5.2 8.55 2
      vertex -4 11.35 2
      vertex -5.2 8.55 2
    endloop
  endfacet
  facet normal -0 0 1
    outer loop
      vertex 5.4 14 2
      vertex 6.4 13 2
      vertex 6.4 14 2
    endloop
  endfacet
  facet normal 0 0 1
    outer loop
      vertex 6.4 13 2
      vertex 5.4 -11.9 2
      vertex 6.4 -13 2
    endloop
  endfacet
  facet normal 0 0 1
    outer loop
      vertex 6.4 13 2
      vertex 5.4 14 2
      vertex 5.4 -11.9 2
    endloop
  endfacet
  facet normal 0 0 1
    outer loop
      vertex 5.4 -13.1 2
      vertex 6.4 -13 2
      vertex 5.4 -11.9 2
    endloop
  endfacet
  facet normal 0 0 1
    outer loop
      vertex 6.4 -13 2
      vertex 5.4 -13.1 2
      vertex 6.4 -14 2
    endloop
  endfacet
  facet normal 0 0 1
    outer loop
      vertex 6.4 -14 2
      vertex 5.4 -13.1 2
      vertex 5.4 -14 2
    endloop
  endfacet
  facet normal -0 0 1
    outer loop
      vertex -6.4 13 2
      vertex -5.4 -11.9 2
      vertex -5.4 14 2
    endloop
  endfacet
  facet normal 0 0 1
    outer loop
      vertex -6.4 -13 2
      vertex -5.4 -11.9 2
      vertex -6.4 13 2
    endloop
  endfacet
  facet normal 0 0 1
    outer loop
      vertex -6.4 13 2
      vertex -5.4 14 2
      vertex -6.4 14 2
    endloop
  endfacet
  facet normal 0 0 1
    outer loop
      vertex -5.4 -11.9 2
      vertex -6.4 -13 2
      vertex -5.4 -13.1 2
    endloop
  endfacet
  facet normal 0 0 1
    outer loop
      vertex -6.4 -14 2
      vertex -5.4 -13.1 2
      vertex -6.4 -13 2
    endloop
  endfacet
  facet normal 0 0 1
    outer loop
      vertex -5.4 -13.1 2
      vertex -6.4 -14 2
      vertex -5.4 -14 2
    endloop
  endfacet
  facet normal -1 0 0
    outer loop
      vertex -7.4 -13 2
      vertex -7.4 13 5.4
      vertex -7.4 13 2
    endloop
  endfacet
  facet normal -1 -0 0
    outer loop
      vertex -7.4 13 5.4
      vertex -7.4 -13 2
      vertex -7.4 -13 5.4
    endloop
  endfacet
  facet normal 0 1 0
    outer loop
      vertex -6.4 13 4.3
      vertex -5.4 13 5.4
      vertex -5.4 13 4.3
    endloop
  endfacet
  facet normal 0 1 0
    outer loop
      vertex -5.4 13 5.4
      vertex -6.4 13 4.3
      vertex -7.4 13 5.4
    endloop
  endfacet
  facet normal 0 1 0
    outer loop
      vertex -7.4 13 2
      vertex -6.4 13 4.3
      vertex -6.4 13 2
    endloop
  endfacet
  facet normal 0 1 0
    outer loop
      vertex -6.4 13 4.3
      vertex -7.4 13 2
      vertex -7.4 13 5.4
    endloop
  endfacet
  facet normal 0 -1 0
    outer loop
      vertex -7.4 -13 5.4
      vertex -6.4 -13 4.3
      vertex -5.4 -13 5.4
    endloop
  endfacet
  facet normal 0 -1 0
    outer loop
      vertex -7.4 -13 2
      vertex -6.4 -13 4.3
      vertex -7.4 -13 5.4
    endloop
  endfacet
  facet normal 0 -1 -0
    outer loop
      vertex -6.4 -13 4.3
      vertex -7.4 -13 2
      vertex -6.4 -13 2
    endloop
  endfacet
  facet normal 0 -1 -0
    outer loop
      vertex -5.4 -13 5.4
      vertex -6.4 -13 4.3
      vertex -5.4 -13 4.3
    endloop
  endfacet
  facet normal 1 -0 0
    outer loop
      vertex 7.4 -13 5.4
      vertex 7.4 13 2
      vertex 7.4 13 5.4
    endloop
  endfacet
  facet normal 1 0 0
    outer loop
      vertex 7.4 13 2
      vertex 7.4 -13 5.4
      vertex 7.4 -13 2
    endloop
  endfacet
  facet normal -0 0 1
    outer loop
      vertex 5.4 13 5.4
      vertex 7.4 -13 5.4
      vertex 7.4 13 5.4
    endloop
  endfacet
  facet normal 0 0 1
    outer loop
      vertex 7.4 -13 5.4
      vertex 5.4 13 5.4
      vertex 5.4 -13 5.4
    endloop
  endfacet
  facet normal 1 -0 0
    outer loop
      vertex 5.4 -13.1 2.8
      vertex 5.4 -11.9 2
      vertex 5.4 -11.9 2.8
    endloop
  endfacet
  facet normal 1 0 0
    outer loop
      vertex 5.4 -11.9 2
      vertex 5.4 -13.1 2.8
      vertex 5.4 -13.1 2
    endloop
  endfacet
  facet normal -1 0 0
    outer loop
      vertex 5.4 -13 4.3
      vertex 5.4 13 5.4
      vertex 5.4 13 4.3
    endloop
  endfacet
  facet normal -1 -0 0
    outer loop
      vertex 5.4 13 5.4
      vertex 5.4 -13 4.3
      vertex 5.4 -13 5.4
    endloop
  endfacet
  facet normal 0 1 0
    outer loop
      vertex 7.4 13 5.4
      vertex 6.4 13 4.3
      vertex 5.4 13 5.4
    endloop
  endfacet
  facet normal 0 1 -0
    outer loop
      vertex 7.4 13 2
      vertex 6.4 13 4.3
      vertex 7.4 13 5.4
    endloop
  endfacet
  facet normal 0 1 0
    outer loop
      vertex 6.4 13 4.3
      vertex 7.4 13 2
      vertex 6.4 13 2
    endloop
  endfacet
  facet normal 0 1 0
    outer loop
      vertex 5.4 13 5.4
      vertex 6.4 13 4.3
      vertex 5.4 13 4.3
    endloop
  endfacet
  facet normal 0 -1 0
    outer loop
      vertex 6.4 -13 4.3
      vertex 5.4 -13 5.4
      vertex 5.4 -13 4.3
    endloop
  endfacet
  facet normal 0 -1 0
    outer loop
      vertex 5.4 -13 5.4
      vertex 6.4 -13 4.3
      vertex 7.4 -13 5.4
    endloop
  endfacet
  facet normal 0 -1 0
    outer loop
      vertex 7.4 -13 2
      vertex 6.4 -13 4.3
      vertex 6.4 -13 2
    endloop
  endfacet
  facet normal 0 -1 0
    outer loop
      vertex 6.4 -13 4.3
      vertex 7.4 -13 2
      vertex 7.4 -13 5.4
    endloop
  endfacet
  facet normal 1 -0 0
    outer loop
      vertex 7.5 -21.2 2
      vertex 7.5 21.2 0
      vertex 7.5 21.2 2
    endloop
  endfacet
  facet normal 1 0 0
    outer loop
      vertex 7.5 21.2 0
      vertex 7.5 -21.2 2
      vertex 7.5 -21.2 0
    endloop
  endfacet
  facet normal 0 0 -1
    outer loop
      vertex 7.5 -21.2 0
      vertex 4 11.35 0
      vertex 7.5 21.2 0
    endloop
  endfacet
  facet normal 0 0 -1
    outer loop
      vertex 7.5 -21.2 0
      vertex -4 11.35 0
      vertex 4 11.35 0
    endloop
  endfacet
  facet normal 0 0 -1
    outer loop
      vertex -7.5 21.2 0
      vertex -4 11.35 0
      vertex -7.5 -21.2 0
    endloop
  endfacet
  facet normal 0 0 -1
    outer loop
      vertex -7.5 -21.2 0
      vertex -4 11.35 0
      vertex 7.5 -21.2 0
    endloop
  endfacet
  facet normal 0 0 -1
    outer loop
      vertex 4 14.35 0
      vertex 7.5 21.2 0
      vertex 4 11.35 0
    endloop
  endfacet
  facet normal 0 0 -1
    outer loop
      vertex -4 14.35 0
      vertex 7.5 21.2 0
      vertex 4 14.35 0
    endloop
  endfacet
  facet normal 0 0 -1
    outer loop
      vertex -4 14.35 0
      vertex -7.5 21.2 0
      vertex 7.5 21.2 0
    endloop
  endfacet
  facet normal 0 0 -1
    outer loop
      vertex -4 11.35 0
      vertex -7.5 21.2 0
      vertex -4 14.35 0
    endloop
  endfacet
  facet normal -1 0 0
    outer loop
      vertex -7.5 -21.2 0
      vertex -7.5 21.2 2
      vertex -7.5 21.2 0
    endloop
  endfacet
  facet normal -1 -0 0
    outer loop
      vertex -7.5 21.2 2
      vertex -7.5 -21.2 0
      vertex -7.5 -21.2 2
    endloop
  endfacet
  facet normal 0 1 -0
    outer loop
      vertex 7.5 21.2 0
      vertex -7.5 21.2 2
      vertex 7.5 21.2 2
    endloop
  endfacet
  facet normal 0 1 0
    outer loop
      vertex -7.5 21.2 2
      vertex 7.5 21.2 0
      vertex -7.5 21.2 0
    endloop
  endfacet
  facet normal 0 -1 0
    outer loop
      vertex -7.5 -21.2 0
      vertex 7.5 -21.2 2
      vertex -7.5 -21.2 2
    endloop
  endfacet
  facet normal 0 -1 -0
    outer loop
      vertex 7.5 -21.2 2
      vertex -7.5 -21.2 0
      vertex 7.5 -21.2 0
    endloop
  endfacet
  facet normal -0 0 1
    outer loop
      vertex -5.4 -11.9 2.8
      vertex 5.4 -13.1 2.8
      vertex 5.4 -11.9 2.8
    endloop
  endfacet
  facet normal 0 0 1
    outer loop
      vertex 5.4 -13.1 2.8
      vertex -5.4 -11.9 2.8
      vertex -5.4 -13.1 2.8
    endloop
  endfacet
  facet normal 0 1 -0
    outer loop
      vertex 5.4 -11.9 2
      vertex -5.4 -11.9 2.8
      vertex 5.4 -11.9 2.8
    endloop
  endfacet
  facet normal 0 1 0
    outer loop
      vertex -5.4 -11.9 2.8
      vertex 5.4 -11.9 2
      vertex -5.4 -11.9 2
    endloop
  endfacet
  facet normal 0 -1 0
    outer loop
      vertex -5.4 -13.1 2
      vertex 5.4 -13.1 2.8
      vertex -5.4 -13.1 2.8
    endloop
  endfacet
  facet normal 0 -1 -0
    outer loop
      vertex 5.4 -13.1 2.8
      vertex -5.4 -13.1 2
      vertex 5.4 -13.1 2
    endloop
  endfacet
  facet normal 0 0 -1
    outer loop
      vertex -6.4 -13 4.3
      vertex -5.4 13 4.3
      vertex -5.4 -13 4.3
    endloop
  endfacet
  facet normal -0 0 -1
    outer loop
      vertex -5.4 13 4.3
      vertex -6.4 -13 4.3
      vertex -6.4 13 4.3
    endloop
  endfacet
  facet normal 1 -0 0
    outer loop
      vertex -6.4 -13 4.3
      vertex -6.4 13 2
      vertex -6.4 13 4.3
    endloop
  endfacet
  facet normal 1 0 0
    outer loop
      vertex -6.4 13 2
      vertex -6.4 -13 4.3
      vertex -6.4 -13 2
    endloop
  endfacet
  facet normal -1 0 0
    outer loop
      vertex 6.4 -13 2
      vertex 6.4 13 4.3
      vertex 6.4 13 2
    endloop
  endfacet
  facet normal -1 -0 0
    outer loop
      vertex 6.4 13 4.3
      vertex 6.4 -13 2
      vertex 6.4 -13 4.3
    endloop
  endfacet
  facet normal 0 0 -1
    outer loop
      vertex 5.4 -13 4.3
      vertex 6.4 13 4.3
      vertex 6.4 -13 4.3
    endloop
  endfacet
  facet normal -0 0 -1
    outer loop
      vertex 6.4 13 4.3
      vertex 5.4 -13 4.3
      vertex 5.4 13 4.3
    endloop
  endfacet
  facet normal -1 0 0
    outer loop
      vertex 5.2 -8.55 1.81
      vertex 5.2 8.55 2
      vertex 5.2 8.55 1.81
    endloop
  endfacet
  facet normal -1 -0 0
    outer loop
      vertex 5.2 8.55 2
      vertex 5.2 -8.55 1.81
      vertex 5.2 -8.55 2
    endloop
  endfacet
  facet normal -0 0 1
    outer loop
      vertex -5.2 8.55 1.81
      vertex 5.2 -8.55 1.81
      vertex 5.2 8.55 1.81
    endloop
  endfacet
  facet normal 0 0 1
    outer loop
      vertex 5.2 -8.55 1.81
      vertex -5.2 8.55 1.81
      vertex -5.2 -8.55 1.81
    endloop
  endfacet
  facet normal 1 -0 0
    outer loop
      vertex -5.2 -8.55 2
      vertex -5.2 8.55 1.81
      vertex -5.2 8.55 2
    endloop
  endfacet
  facet normal 1 0 0
    outer loop
      vertex -5.2 8.55 1.81
      vertex -5.2 -8.55 2
      vertex -5.2 -8.55 1.81
    endloop
  endfacet
  facet normal 0 -1 0
    outer loop
      vertex -5.2 8.55 1.81
      vertex 5.2 8.55 2
      vertex -5.2 8.55 2
    endloop
  endfacet
  facet normal 0 -1 -0
    outer loop
      vertex 5.2 8.55 2
      vertex -5.2 8.55 1.81
      vertex 5.2 8.55 1.81
    endloop
  endfacet
  facet normal 0 1 -0
    outer loop
      vertex 5.2 -8.55 1.81
      vertex -5.2 -8.55 2
      vertex 5.2 -8.55 2
    endloop
  endfacet
  facet normal 0 1 0
    outer loop
      vertex -5.2 -8.55 2
      vertex 5.2 -8.55 1.81
      vertex -5.2 -8.55 1.81
    endloop
  endfacet
  facet normal -1 0 0
    outer loop
      vertex 4 11.35 0
      vertex 4 14.35 2
      vertex 4 14.35 0
    endloop
  endfacet
  facet normal -1 -0 0
    outer loop
      vertex 4 14.35 2
      vertex 4 11.35 0
      vertex 4 11.35 2
    endloop
  endfacet
  facet normal 1 -0 0
    outer loop
      vertex -4 11.35 2
      vertex -4 14.35 0
      vertex -4 14.35 2
    endloop
  endfacet
  facet normal 1 0 0
    outer loop
      vertex -4 14.35 0
      vertex -4 11.35 2
      vertex -4 11.35 0
    endloop
  endfacet
  facet normal 0 -1 0
    outer loop
      vertex -4 14.35 0
      vertex 4 14.35 2
      vertex -4 14.35 2
    endloop
  endfacet
  facet normal 0 -1 -0
    outer loop
      vertex 4 14.35 2
      vertex -4 14.35 0
      vertex 4 14.35 0
    endloop
  endfacet
  facet normal 0 1 -0
    outer loop
      vertex 4 11.35 0
      vertex -4 11.35 2
      vertex 4 11.35 2
    endloop
  endfacet
  facet normal 0 1 0
    outer loop
      vertex -4 11.35 2
      vertex 4 11.35 0
      vertex -4 11.35 0
    endloop
  endfacet
endsolid OpenSCAD_Model
